<svg xmlns="http://www.w3.org/2000/svg" xmlns:xlink="http://www.w3.org/1999/xlink" width="500" zoomAndPan="magnify" viewBox="0 0 375 374.999991" height="500" preserveAspectRatio="xMidYMid meet" version="1.0"><defs><g/><clipPath id="id1"><path d="M 157.214844 132 L 178 132 L 178 162 L 157.214844 162 Z M 157.214844 132 " clip-rule="nonzero"/></clipPath><clipPath id="id2"><path d="M 157.214844 131 L 179 131 L 179 163 L 157.214844 163 Z M 157.214844 131 " clip-rule="nonzero"/></clipPath><clipPath id="id3"><path d="M 197 132 L 217.964844 132 L 217.964844 162 L 197 162 Z M 197 132 " clip-rule="nonzero"/></clipPath><clipPath id="id4"><path d="M 196 131 L 217.964844 131 L 217.964844 163 L 196 163 Z M 196 131 " clip-rule="nonzero"/></clipPath><clipPath id="id5"><path d="M 177 123.375 L 198 123.375 L 198 170.625 L 177 170.625 Z M 177 123.375 " clip-rule="nonzero"/></clipPath></defs><g clip-path="url(#id1)"><path fill="#2c3e50" d="M 176.378906 161.898438 C 176.042969 161.898438 175.714844 161.785156 175.449219 161.574219 L 158.460938 148.183594 C 158.09375 147.894531 157.886719 147.464844 157.886719 147 C 157.886719 146.535156 158.09375 146.101562 158.460938 145.8125 L 175.449219 132.421875 C 175.714844 132.214844 176.042969 132.101562 176.378906 132.101562 C 176.84375 132.101562 177.277344 132.308594 177.5625 132.675781 C 177.808594 132.992188 177.921875 133.386719 177.875 133.785156 C 177.828125 134.183594 177.625 134.542969 177.3125 134.792969 L 161.828125 147 L 177.3125 159.203125 C 177.625 159.457031 177.828125 159.8125 177.875 160.210938 C 177.921875 160.613281 177.808594 161.003906 177.5625 161.324219 C 177.277344 161.6875 176.84375 161.898438 176.378906 161.898438 " fill-opacity="1" fill-rule="nonzero"/></g><g clip-path="url(#id2)"><path fill="#2c3e50" d="M 176.378906 131.457031 C 175.902344 131.457031 175.433594 131.621094 175.054688 131.917969 L 158.0625 145.308594 C 157.542969 145.722656 157.246094 146.335938 157.246094 147 C 157.246094 147.660156 157.542969 148.277344 158.0625 148.6875 L 175.054688 162.082031 C 175.429688 162.375 175.902344 162.539062 176.378906 162.539062 C 177.042969 162.539062 177.660156 162.238281 178.066406 161.71875 C 178.421875 161.269531 178.578125 160.707031 178.511719 160.136719 C 178.445312 159.566406 178.160156 159.054688 177.707031 158.699219 L 162.863281 147 L 177.707031 135.296875 C 178.160156 134.941406 178.445312 134.429688 178.511719 133.863281 C 178.578125 133.292969 178.421875 132.730469 178.066406 132.277344 C 177.660156 131.753906 177.042969 131.457031 176.378906 131.457031 Z M 176.378906 132.742188 C 176.636719 132.742188 176.890625 132.855469 177.058594 133.070312 C 177.355469 133.449219 177.289062 133.992188 176.914062 134.289062 L 160.789062 147 L 176.914062 159.710938 C 177.289062 160.003906 177.355469 160.550781 177.058594 160.925781 C 176.890625 161.144531 176.636719 161.257812 176.378906 161.257812 C 176.191406 161.257812 176.007812 161.195312 175.847656 161.070312 L 158.855469 147.679688 C 158.648438 147.515625 158.527344 147.261719 158.527344 147 C 158.527344 146.730469 158.648438 146.484375 158.855469 146.320312 L 175.847656 132.925781 C 176.003906 132.800781 176.191406 132.742188 176.378906 132.742188 " fill-opacity="1" fill-rule="nonzero"/></g><g clip-path="url(#id3)"><path fill="#2c3e50" d="M 198.796875 161.898438 C 198.332031 161.898438 197.902344 161.6875 197.613281 161.324219 C 197.101562 160.671875 197.214844 159.71875 197.867188 159.203125 L 213.351562 147 L 197.867188 134.792969 C 197.214844 134.277344 197.101562 133.328125 197.613281 132.675781 C 197.902344 132.308594 198.332031 132.101562 198.796875 132.101562 C 199.132812 132.101562 199.464844 132.214844 199.726562 132.421875 L 216.71875 145.8125 C 217.082031 146.101562 217.289062 146.535156 217.289062 147 C 217.289062 147.464844 217.082031 147.894531 216.714844 148.183594 L 199.726562 161.574219 C 199.464844 161.785156 199.132812 161.898438 198.796875 161.898438 " fill-opacity="1" fill-rule="nonzero"/></g><g clip-path="url(#id4)"><path fill="#2c3e50" d="M 198.796875 131.457031 C 198.136719 131.457031 197.519531 131.753906 197.109375 132.277344 C 196.378906 133.210938 196.539062 134.5625 197.46875 135.296875 L 212.316406 147 L 197.46875 158.703125 C 196.539062 159.433594 196.378906 160.789062 197.109375 161.71875 C 197.519531 162.238281 198.136719 162.539062 198.796875 162.539062 C 199.277344 162.539062 199.746094 162.375 200.121094 162.082031 L 217.113281 148.6875 C 217.632812 148.277344 217.929688 147.660156 217.929688 147 C 217.929688 146.335938 217.632812 145.722656 217.117188 145.308594 L 200.125 131.917969 C 199.75 131.621094 199.277344 131.457031 198.796875 131.457031 Z M 198.796875 132.742188 C 198.984375 132.742188 199.175781 132.800781 199.332031 132.925781 L 216.320312 146.320312 C 216.527344 146.484375 216.648438 146.730469 216.648438 147 C 216.648438 147.261719 216.527344 147.515625 216.320312 147.679688 L 199.332031 161.070312 C 199.175781 161.195312 198.984375 161.257812 198.796875 161.257812 C 198.539062 161.257812 198.289062 161.144531 198.117188 160.925781 C 197.824219 160.550781 197.886719 160.003906 198.261719 159.710938 L 214.386719 147 L 198.261719 134.289062 C 197.886719 133.992188 197.824219 133.449219 198.117188 133.070312 C 198.289062 132.855469 198.542969 132.742188 198.796875 132.742188 " fill-opacity="1" fill-rule="nonzero"/></g><path fill="#2c3e50" d="M 179.144531 169.980469 C 178.957031 169.980469 178.777344 169.945312 178.601562 169.875 C 178.226562 169.730469 177.929688 169.449219 177.769531 169.082031 C 177.605469 168.710938 177.597656 168.300781 177.742188 167.929688 L 194.335938 124.980469 C 194.558594 124.40625 195.121094 124.019531 195.738281 124.019531 C 195.925781 124.019531 196.109375 124.054688 196.28125 124.121094 C 197.054688 124.421875 197.441406 125.296875 197.140625 126.074219 L 180.550781 169.015625 C 180.328125 169.589844 179.761719 169.980469 179.144531 169.980469 " fill-opacity="1" fill-rule="nonzero"/><g clip-path="url(#id5)"><path fill="#2c3e50" d="M 195.738281 123.375 C 194.859375 123.375 194.054688 123.929688 193.738281 124.75 L 177.144531 167.695312 C 176.9375 168.230469 176.953125 168.8125 177.183594 169.339844 C 177.414062 169.863281 177.835938 170.269531 178.371094 170.476562 C 178.621094 170.574219 178.878906 170.621094 179.144531 170.621094 C 180.023438 170.621094 180.828125 170.070312 181.148438 169.246094 L 197.738281 126.304688 C 198.167969 125.199219 197.617188 123.949219 196.511719 123.523438 C 196.265625 123.425781 196.003906 123.375 195.738281 123.375 Z M 195.738281 124.660156 C 195.84375 124.660156 195.945312 124.679688 196.050781 124.71875 C 196.496094 124.890625 196.714844 125.390625 196.542969 125.839844 L 179.949219 168.78125 C 179.820312 169.128906 179.492188 169.335938 179.144531 169.335938 C 179.039062 169.335938 178.9375 169.320312 178.832031 169.277344 C 178.386719 169.105469 178.167969 168.601562 178.339844 168.160156 L 194.933594 125.214844 C 195.066406 124.871094 195.390625 124.660156 195.738281 124.660156 " fill-opacity="1" fill-rule="nonzero"/></g><g fill="#2c3e50" fill-opacity="1"><g transform="translate(83.409956, 216.116295)"><g><path d="M 29.285156 -33.59375 L 21.746094 -33.59375 L 8.738281 -17.109375 L 8.738281 -33.59375 L 2.277344 -33.59375 L 2.277344 0 L 8.738281 0 L 8.738281 -16.484375 L 21.414062 0 L 29.367188 0 L 15.863281 -16.984375 Z M 29.285156 -33.59375 "/></g></g></g><g fill="#2c3e50" fill-opacity="1"><g transform="translate(111.612528, 216.116295)"><g><path d="M 13.253906 -24.730469 C 12.136719 -24.730469 10.5625 -24.605469 8.824219 -24.4375 L 8.824219 -33.59375 L 2.238281 -33.59375 L 2.238281 0 L 8.824219 0 L 8.824219 -18.433594 C 10.3125 -18.679688 11.886719 -18.847656 13.007812 -18.847656 C 16.070312 -18.847656 17.6875 -17.730469 17.6875 -14.746094 L 17.6875 0 L 24.273438 0 L 24.273438 -15.535156 C 24.273438 -22.65625 19.136719 -24.730469 13.253906 -24.730469 Z M 13.253906 -24.730469 "/></g></g></g><g fill="#2c3e50" fill-opacity="1"><g transform="translate(136.543395, 216.116295)"><g><path d="M 13.339844 -24.605469 C 10.3125 -24.605469 6.792969 -23.941406 5.011719 -23.238281 L 3.5625 -17.398438 C 6.171875 -18.433594 9.570312 -19.054688 11.929688 -19.054688 C 15.574219 -19.054688 17.644531 -17.976562 17.644531 -14.996094 L 17.644531 -14.125 C 15.699219 -14.375 14 -14.457031 12.261719 -14.457031 C 5.757812 -14.457031 1.65625 -12.136719 1.65625 -7.082031 L 1.65625 -7 C 1.65625 -1.410156 6.171875 0.664062 13.460938 0.664062 C 16.691406 0.664062 20.960938 0.207031 24.230469 -0.496094 L 24.230469 -15.203125 C 24.230469 -22.242188 19.925781 -24.605469 13.339844 -24.605469 Z M 8.410156 -7.414062 C 8.410156 -9.527344 10.398438 -10.273438 13.710938 -10.273438 C 14.746094 -10.273438 16.320312 -10.148438 17.644531 -9.941406 L 17.644531 -4.804688 C 16.277344 -4.597656 14.828125 -4.472656 13.710938 -4.472656 C 10.355469 -4.472656 8.410156 -5.300781 8.410156 -7.332031 Z M 8.410156 -7.414062 "/></g></g></g><g fill="#2c3e50" fill-opacity="1"><g transform="translate(161.350025, 216.116295)"><g><path d="M 8.824219 0 L 8.824219 -18.433594 C 10.355469 -18.679688 11.847656 -18.847656 13.007812 -18.847656 C 16.070312 -18.847656 17.730469 -17.730469 17.730469 -14.746094 L 17.730469 0 L 24.273438 0 L 24.273438 -15.535156 C 24.273438 -22.65625 19.179688 -24.730469 13.296875 -24.730469 C 10.894531 -24.730469 6.214844 -24.191406 2.238281 -23.488281 L 2.238281 0 Z M 8.824219 0 "/></g></g></g><g fill="#2c3e50" fill-opacity="1"><g transform="translate(186.322307, 216.116295)"><g><path d="M 13.253906 -24.730469 C 12.136719 -24.730469 10.5625 -24.605469 8.824219 -24.4375 L 8.824219 -33.59375 L 2.238281 -33.59375 L 2.238281 0 L 8.824219 0 L 8.824219 -18.433594 C 10.3125 -18.679688 11.886719 -18.847656 13.007812 -18.847656 C 16.070312 -18.847656 17.6875 -17.730469 17.6875 -14.746094 L 17.6875 0 L 24.273438 0 L 24.273438 -15.535156 C 24.273438 -22.65625 19.136719 -24.730469 13.253906 -24.730469 Z M 13.253906 -24.730469 "/></g></g></g><g fill="#2c3e50" fill-opacity="1"><g transform="translate(211.253179, 216.116295)"><g><path d="M 8.78125 0 L 8.78125 -14.082031 L 23.363281 -14.082031 L 23.363281 0 L 29.867188 0 L 29.867188 -33.59375 L 23.363281 -33.59375 L 23.363281 -20.171875 L 8.78125 -20.171875 L 8.78125 -33.59375 L 2.238281 -33.59375 L 2.238281 0 Z M 8.78125 0 "/></g></g></g><g fill="#2c3e50" fill-opacity="1"><g transform="translate(241.816364, 216.116295)"><g><path d="M 13.253906 0.664062 C 15.65625 0.664062 20.339844 0.125 24.273438 -0.578125 L 24.273438 -23.777344 L 17.730469 -23.777344 L 17.730469 -5.386719 C 16.195312 -5.09375 14.703125 -4.96875 13.546875 -4.96875 C 10.4375 -4.96875 8.824219 -6.046875 8.824219 -9.070312 L 8.824219 -23.777344 L 2.238281 -23.777344 L 2.238281 -8.53125 C 2.238281 -1.410156 7.375 0.664062 13.253906 0.664062 Z M 13.253906 0.664062 "/></g></g></g><g fill="#2c3e50" fill-opacity="1"><g transform="translate(266.788653, 216.116295)"><g><path d="M 13.339844 -24.605469 C 10.3125 -24.605469 6.792969 -23.941406 5.011719 -23.238281 L 3.5625 -17.398438 C 6.171875 -18.433594 9.570312 -19.054688 11.929688 -19.054688 C 15.574219 -19.054688 17.644531 -17.976562 17.644531 -14.996094 L 17.644531 -14.125 C 15.699219 -14.375 14 -14.457031 12.261719 -14.457031 C 5.757812 -14.457031 1.65625 -12.136719 1.65625 -7.082031 L 1.65625 -7 C 1.65625 -1.410156 6.171875 0.664062 13.460938 0.664062 C 16.691406 0.664062 20.960938 0.207031 24.230469 -0.496094 L 24.230469 -15.203125 C 24.230469 -22.242188 19.925781 -24.605469 13.339844 -24.605469 Z M 8.410156 -7.414062 C 8.410156 -9.527344 10.398438 -10.273438 13.710938 -10.273438 C 14.746094 -10.273438 16.320312 -10.148438 17.644531 -9.941406 L 17.644531 -4.804688 C 16.277344 -4.597656 14.828125 -4.472656 13.710938 -4.472656 C 10.355469 -4.472656 8.410156 -5.300781 8.410156 -7.332031 Z M 8.410156 -7.414062 "/></g></g></g><g fill="#2c3e50" fill-opacity="1"><g transform="translate(162.839254, 245.299906)"><g><path d="M 4.925781 -2.828125 C 10.195312 -6.253906 12.15625 -8.675781 12.15625 -11.445312 L 12.15625 -11.484375 C 12.15625 -14.542969 9.925781 -15.871094 6.714844 -15.871094 C 4.65625 -15.871094 2.710938 -15.332031 1.078125 -14.464844 L 2.25 -11.871094 C 3.425781 -12.621094 5.019531 -13.082031 6.269531 -13.082031 C 8.058594 -13.082031 9.097656 -12.3125 9.097656 -10.90625 L 9.097656 -10.871094 C 9.097656 -8.347656 5.539062 -5.753906 1.039062 -2.691406 L 1.039062 0 L 12.484375 0 L 12.484375 -2.828125 Z M 4.925781 -2.828125 "/></g></g></g><g fill="#2c3e50" fill-opacity="1"><g transform="translate(175.742586, 245.299906)"><g><path d="M 6.925781 0 L 6.925781 -15.792969 L 0.75 -14.621094 L 0.75 -11.925781 L 3.90625 -12.621094 L 3.90625 0 Z M 6.925781 0 "/></g></g></g><g fill="#2c3e50" fill-opacity="1"><g transform="translate(184.088273, 245.299906)"><g><path d="M 7.597656 0.25 C 11.734375 0.25 14.410156 -2.597656 14.410156 -7.773438 L 14.410156 -7.792969 C 14.410156 -13.003906 11.734375 -15.871094 7.597656 -15.871094 C 3.460938 -15.871094 0.789062 -13.003906 0.789062 -7.792969 L 0.789062 -7.773438 C 0.789062 -2.597656 3.460938 0.25 7.597656 0.25 Z M 7.597656 -2.539062 C 5.289062 -2.539062 3.867188 -4.347656 3.867188 -7.773438 L 3.867188 -7.792969 C 3.867188 -11.195312 5.289062 -13.042969 7.597656 -13.042969 C 9.90625 -13.042969 11.3125 -11.195312 11.3125 -7.792969 L 11.3125 -7.773438 C 11.3125 -4.347656 9.90625 -2.539062 7.597656 -2.539062 Z M 7.597656 -2.539062 "/></g></g></g><g fill="#2c3e50" fill-opacity="1"><g transform="translate(198.530044, 245.299906)"><g><path d="M 4.925781 -2.828125 C 10.195312 -6.253906 12.15625 -8.675781 12.15625 -11.445312 L 12.15625 -11.484375 C 12.15625 -14.542969 9.925781 -15.871094 6.714844 -15.871094 C 4.65625 -15.871094 2.710938 -15.332031 1.078125 -14.464844 L 2.25 -11.871094 C 3.425781 -12.621094 5.019531 -13.082031 6.269531 -13.082031 C 8.058594 -13.082031 9.097656 -12.3125 9.097656 -10.90625 L 9.097656 -10.871094 C 9.097656 -8.347656 5.539062 -5.753906 1.039062 -2.691406 L 1.039062 0 L 12.484375 0 L 12.484375 -2.828125 Z M 4.925781 -2.828125 "/></g></g></g></svg>